<?xml version="1.0" encoding="utf-8"?>
<!-- Uploaded to: SVG Repo, www.svgrepo.com, Generator: SVG Repo Mixer Tools -->
<svg width="800px" height="800px" viewBox="0 0 1024 1024" class="icon"  version="1.1" xmlns="http://www.w3.org/2000/svg"><path d="M803.903676 585.006787m-100.928928 0a100.928928 100.928928 0 1 0 201.857856 0 100.928928 100.928928 0 1 0-201.857856 0Z" fill="#FAE1DC" /><path d="M191.733214 585.006787m-100.928928 0a100.928928 100.928928 0 1 0 201.857856 0 100.928928 100.928928 0 1 0-201.857856 0Z" fill="#FAE1DC" /><path d="M506.690736 556.043959m-338.311227 0a338.311227 338.311227 0 1 0 676.622455 0 338.311227 338.311227 0 1 0-676.622455 0Z" fill="#FAE1DC" /><path d="M1003.82127 491.380301H13.229063c-0.670273 0-1.234713-0.56444-1.234713-1.234712v-53.374858c0-0.670273 0.56444-1.234713 1.234713-1.234713h990.592207c0.670273 0 1.234713 0.56444 1.234712 1.234713v53.374858c0 0.670273-0.56444 1.234713-1.234712 1.234712z" fill="#63BCBC" /><path d="M743.191098 129.609536H271.425087c-18.379578 0-28.92755 14.040445-33.407793 36.40638L191.204051 440.369036c0 20.03762 15.028215 36.40638 33.407793 36.40638h565.357219c18.379578 0 33.407793-16.404038 33.407793-36.40638l-46.777965-274.35312c-3.10442-20.778448-15.028215-36.40638-33.407793-36.40638z" fill="#63BCBC" /><path d="M797.236228 685.935715c-59.054535 98.812278-167.038964 164.992869-290.545492 164.992869s-231.490957-66.18059-290.545492-164.992869h-21.942605c50.94071 122.377648 171.625039 208.454749 312.45282 208.454749 140.827781 0 261.547387-86.077101 312.452819-208.454749h-21.87205z" fill="#00263A" /><path d="M515.827609 725.199573c-79.797706 0-144.461364 47.307128-144.461364 105.620836 0 8.360768 1.481655 16.474593 3.986358 24.27092h280.950012c2.504703-7.796328 3.986358-15.910153 3.986357-24.27092 0-58.313708-64.698935-105.620836-144.461363-105.620836z m1.55221 120.119888c-55.562063 0.952493-68.650016-66.956695-68.650016-66.956695h134.125056c0.035278 0-9.912978 66.004203-65.47504 66.956695z" fill="#00263A" /></svg>